<?xml version="1.0" encoding="UTF-8" standalone="no"?>
<svg
   xmlns:dc="http://purl.org/dc/elements/1.1/"
   xmlns:cc="http://creativecommons.org/ns#"
   xmlns:rdf="http://www.w3.org/1999/02/22-rdf-syntax-ns#"
   xmlns:svg="http://www.w3.org/2000/svg"
   xmlns="http://www.w3.org/2000/svg"
   xmlns:sodipodi="http://sodipodi.sourceforge.net/DTD/sodipodi-0.dtd"
   xmlns:inkscape="http://www.inkscape.org/namespaces/inkscape"
   version="1.1"
   width="300"
   height="600"
   xml:space="preserve"
   id="svg392"
   sodipodi:docname="katakanas.svg"
   inkscape:version="0.92.2 5c3e80d, 2017-08-06"><metadata
     id="metadata396"><rdf:RDF><cc:Work
         rdf:about=""><dc:format>image/svg+xml</dc:format><dc:type
           rdf:resource="http://purl.org/dc/dcmitype/StillImage" /><dc:title></dc:title></cc:Work></rdf:RDF></metadata><sodipodi:namedview
     pagecolor="#ffffff"
     bordercolor="#666666"
     borderopacity="1"
     objecttolerance="10"
     gridtolerance="10"
     guidetolerance="10"
     inkscape:pageopacity="0"
     inkscape:pageshadow="2"
     inkscape:window-width="791"
     inkscape:window-height="682"
     id="namedview394"
     showgrid="false"
     inkscape:zoom="0.80316017"
     inkscape:cx="182.90567"
     inkscape:cy="337.71035"
     inkscape:window-x="0"
     inkscape:window-y="0"
     inkscape:window-maximized="0"
     inkscape:current-layer="svg392" /><desc
     id="desc2">Created with RAW JAVASCRIPT POWER.</desc><defs
     id="defs4" /><path
     d="m 42.026478,45.78127 2,2 5,-1 6,-1 5,-1 2,2 m -19,0 h 6 m 6,-1 h 6 m 1,1 -2,2 -4,3 -2,1 m 7,-7 -2,3 -2,2 -3,2 m -2,-1 2,1 v 3 l -1,4 -2,3 -3,3 m 4,-14 1,1 v 3 l -1,4 -2,4"
     id="path232"
     inkscape:connector-curvature="0"
     style="fill:none;stroke:#000000" /><path
     d="m 106.49305,43.33382 2,2 -3,4 -3,3 -3.999994,3 -3.000002,2 m 11.999996,-13 -1,2 -3,4 -3.999992,4 -4.000004,3 m 7.999996,-6 2,1 v 13 m -2,-14 1,1 v 12 l 1,1"
     id="path234"
     inkscape:connector-curvature="0"
     style="fill:none;stroke:#000000" /><path
     d="m 149.10746,43.33382 3,1 v 2 l -1,2 m -2,-5 2,1 v 4 m -8,-2 1,2 v 5 l 1,1 m 0,-6 v 6 m 0,-6 h 13 m -15,-2 1,1 4,1 m 6,0 3,-1 2,2 m 0,0 -3,6 -2,3 -3,3 -3,2 -2,1 m 12,-16 -1,3 -2,4 -3,4 -3,3 -3,2"
     id="path236"
     inkscape:connector-curvature="0"
     style="fill:none;stroke:#000000" /><path
     d="m 201.81912,48.33382 2,1 v 11 m -1,-11 v 11 m -8,-13 2,2 12,-2 2,1 m -15,0 h 15 m -18,11 2,2 16,-2 2,1 m -19,0 h 19"
     id="path238"
     inkscape:connector-curvature="0"
     style="fill:none;stroke:#000000" /><path
     d="m 254.53078,43.33382 3,1 v 18 l -1,2 -1,-2 -3,-2 m 4,-16 v 17 l -1,1 m -11,-13 2,2 5,-1 6,-1 5,-1 2,1 m -19,1 h 6 m 6,-1 h 7 m -9,1 -3,4 -4,4 -4,3 m 12,-11 -2,3 -3,3 -4,3 -3,2"
     id="path240"
     inkscape:connector-curvature="0"
     style="fill:none;stroke:#000000" /><path
     d="m 51.386191,93.31459 2,2 -1,3 -2,5 -2,4 -2,3 -3,4 m 9,-20 -1,3 -2,6 -2,5 -4,6 m 0,-15 2,2 4,-1 5,-1 4,-1 2,2 m -16,0 h 5 m 5,-1 h 5 m 1,1 -1,6 -1,4 -1,2 -2,2 -1,-1 -2,-1 m 7,-13 -1,7 -1,4 -1,2 -2,1"
     id="path242"
     inkscape:connector-curvature="0"
     style="fill:none;stroke:#000000" /><path
     d="m 101.09785,91.86715 2.99999,1 2,20 m -3,-20 2,21 1,-1 m -9.999991,-15 2,2 4.000001,-1 3.99999,-1 4,-1 2,1 m -14.999991,1 h 5.000001 m 3.99999,-1 h 6 m -17.999991,6 2,2 5.000001,-1 5.99999,-1 5,-1 2,1 m -18.999991,1 h 6.000001 m 5.99999,-1 h 7"
     id="path244"
     inkscape:connector-curvature="0"
     style="fill:none;stroke:#000000" /><path
     d="m 149.46717,91.86715 2,2 -2,4 -2,3 -2,2 -2,2 m 7,-12 -1,3 -2,4 -2,3 m 5,-7 2,1 h 5 m -3,0 2,-1 2,2 m 0,0 -3,6 -3,4 -3,3 -3,2 -2,1 m 13,-17 -1,3 -2,4 -3,4 -3,3 -4,3"
     id="path246"
     inkscape:connector-curvature="0"
     style="fill:none;stroke:#000000" /><path
     d="m 199.17883,91.86715 2,2 -2,4 -2,3 -2,2 -2,2 m 7,-12 -1,3 -2,4 -2,3 m 2,-2 8,-1 5,-1 3,1 m -8,0 h 8 m -10,1 2,2 -2,4 -2,3 -2,2 -2,2 m 7,-12 -1,3 -2,4 -2,3"
     id="path248"
     inkscape:connector-curvature="0"
     style="fill:none;stroke:#000000" /><path
     d="m 246.89049,95.86715 2,2 12,-2 2,2 m -15,-1 h 14 m 1,1 -1,3 -1,7 m 1,-11 -1,5 v 6 m -14,0 2,2 12,-2 1,1 m -14,0 h 14"
     id="path250"
     inkscape:connector-curvature="0"
     style="fill:none;stroke:#000000" /><path
     d="m 44.827438,148.01147 2,1 v 5 l -1,4 m 0,-9 v 9 m 7,-13 3,1 v 5 l -1,5 -1,3 -1,2 -2,3 -2,2 m 6,-20 v 5 l -1,5 -1,4 -2,4 m -10,-12 2,2 5,-1 6,-1 5,-1 2,1 m -19,1 h 6 m 6,-1 h 7"
     id="path252"
     inkscape:connector-curvature="0"
     style="fill:none;stroke:#000000" /><path
     d="m 97.539096,144.56402 2.000002,1 1.000002,1 v 1 h -1.000002 l -1.000002,-2 -1,-1 m -5,7 2,1 1,1 v 1 h -1 l -1,-2 -1,-1 m 1,10 2,2 4.000002,-2 3.999992,-3 4,-4 4,-5 m -16.999994,13 5.000002,-2 3.999992,-3 8,-8"
     id="path254"
     inkscape:connector-curvature="0"
     style="fill:none;stroke:#000000" /><path
     d="m 141.55747,145.81542 2,2 11,-2 2,2 m -14,-1 h 13 m 1,1 -2,3 -3,3 -3,2 -2,1 -5,2 m 14,-12 -1,2 -2,3 -2,2 -3,2 -6,3 m 11,-3 3,2 2,2 v 1 h -1 l -1,-2 -3,-3"
     id="path256"
     inkscape:connector-curvature="0"
     style="fill:none;stroke:#000000" /><path
     d="m 198.26913,143.81542 3,1 v 2 l -1,9 m 0,-11 v 14 l 1,2 2,1 h 7 m -5,0 4,-1 1,1 m -19,-11 2,2 5,-1 6,-1 5,-1 2,2 m -19,0 h 6 m 6,-1 h 6 m 1,1 -3,2 -3,3 m 5,-6 -5,6"
     id="path258"
     inkscape:connector-curvature="0"
     style="fill:none;stroke:#000000" /><path
     d="m 243.98079,145.81542 2,1 1,1 v 1 h -1 l -1,-2 -1,-1 m 15,-1 2,2 -3,6 -3,4 -3,3 -3,2 -2,1 m 13,-17 -1,3 -2,4 -3,4 -3,3 -4,3"
     id="path260"
     inkscape:connector-curvature="0"
     style="fill:none;stroke:#000000" /><path
     d="m 49.317072,194.22812 2,2 -2,4 -2,3 -2,2 -2,2 m 7,-12 -1,3 -2,4 -2,3 m 5,-7 2,1 h 5 m -3,0 2,-1 2,2 m 0,0 -3,6 -3,4 -3,3 -3,2 -2,1 m 13,-17 -1,3 -2,4 -3,4 -3,3 -4,3 m 3,-12 3,1 2,1 3,2 1,1 v 1 h -1 l -1,-2 -2,-2"
     id="path262"
     inkscape:connector-curvature="0"
     style="fill:none;stroke:#000000" /><path
     d="m 97.02873,196.78067 h 3 l 4.99999,-1 4,-2 m -8.99999,3 2.99999,-1 2,-1 3,-2 1,1 m -7.99999,3 2.99999,1 v 6 l -1,4 -1.99999,3 -3,3 m 4.99999,-16 v 6 l -0.99999,4 -2,4 m -7,-11 2,2 5,-1 5.99999,-1 5,-1 2,1 m -18.99999,1 h 6 m 5.99999,-1 h 7"
     id="path264"
     inkscape:connector-curvature="0"
     style="fill:none;stroke:#000000" /><path
     d="m 141.39805,195.78067 2,1 1,1 v 1 h -1 l -1,-2 -1,-1 m 6,-1 2,1 1,1 v 1 h -1 l -1,-2 -1,-1 m 9,0 2,2 -3,6 -3,4 -3,3 -3,2 -2,1 m 13,-17 -1,3 -2,4 -3,4 -3,3 -4,3"
     id="path266"
     inkscape:connector-curvature="0"
     style="fill:none;stroke:#000000" /><path
     d="m 196.10971,192.78067 2,2 9,-2 1,1 m -11,0 h 11 m -16,7 2,2 5,-1 6,-1 5,-1 2,1 m -19,1 h 6 m 6,-1 h 7 m -9,1 v 2 l -1,4 -2,3 -3,3 m 5,-12 v 2 l -1,4 -2,4"
     id="path268"
     inkscape:connector-curvature="0"
     style="fill:none;stroke:#000000" /><path
     d="m 248.82137,192.78067 3,1 v 21 m -1,-21 v 20 l 1,1 m 0,-13 h 2 l 3,1 1,1 v 1 h -1 l -1,-2 -2,-1"
     id="path270"
     inkscape:connector-curvature="0"
     style="fill:none;stroke:#000000" /><path
     d="m 47.836654,244.35867 3,1 v 5 l -1,5 -1,3 -1,2 -2,3 -2,2 m 6,-20 v 5 l -1,5 -1,4 -2,4 m -7,-11 2,2 5,-1 6,-1 5,-1 2,1 m -19,1 h 6 m 6,-1 h 7"
     id="path272"
     inkscape:connector-curvature="0"
     style="fill:none;stroke:#000000" /><path
     d="m 94.548312,246.91122 2,2 8.999998,-2 1,1 m -10.999998,0 h 10.999998 m -15.999998,11 2,2 15.999998,-2 2,1 m -18.999998,0 h 18.999998"
     id="path274"
     inkscape:connector-curvature="0"
     style="fill:none;stroke:#000000" /><path
     d="m 139.91763,245.91122 2,2 11,-2 2,2 m -14,-1 h 13 m 1,1 -2,3 -3,3 -3,2 -2,1 -5,2 m 14,-12 -1,2 -2,3 -2,2 -3,2 -6,3 m 3,-7 3,1 4,2 3,2 2,2 v 1 h -1 l -2,-3 -2,-2"
     id="path276"
     inkscape:connector-curvature="0"
     style="fill:none;stroke:#000000" /><path
     d="m 197.62929,242.91122 2,1 1,1 v 1 h -1 l -1,-2 -1,-1 m -6,6 2,2 10,-2 2,2 m -13,-1 h 12 m 1,1 -4,4 -3,2 -2,1 -5,2 m 13,-10 -2,3 -2,2 -3,2 -6,3 m 8,-4 1,1 v 8 m -1,-9 v 8 l 1,1 m 5,-7 2,1 1,1 v 1 h -1 l -1,-2 -1,-1"
     id="path278"
     inkscape:connector-curvature="0"
     style="fill:none;stroke:#000000" /><path
     d="m 256.34095,244.91122 2,2 -3,6 -3,4 -3,3 -3,2 -2,1 m 13,-17 -1,3 -3,5 -3,4 -3,3 -3,2"
     id="path280"
     inkscape:connector-curvature="0"
     style="fill:none;stroke:#000000" /><path
     d="m 44.533781,298.80183 2,2 -1,3 -1,2 -2,2 -2,1 m 5,-9 -1,4 -2,4 m 12,-9 2,2 2,3 2,4 v 1 h -1 l -1,-4 -2,-4"
     id="path282"
     inkscape:connector-curvature="0"
     style="fill:none;stroke:#000000" /><path
     d="m 93.245439,292.35438 3,1 v 2 l -1,9 m 0,-11 v 14 l 1,2 2,1 h 10.999991 m -7.99999,0 3.99999,-1 h 2 l 2,1 m -13.999991,-7 3.999999,-1 3.000002,-1 5.99999,-2 m -5.99999,2 3.99999,-2 h 2"
     id="path284"
     inkscape:connector-curvature="0"
     style="fill:none;stroke:#000000" /><path
     d="m 141.61476,292.35438 2,2 h 13 m -14,-1 4,1 m 6,0 3,-1 2,2 m 0,0 -3,6 -2,3 -3,3 -3,2 -2,1 m 12,-16 -1,3 -2,4 -3,4 -3,3 -3,2"
     id="path286"
     inkscape:connector-curvature="0"
     style="fill:none;stroke:#000000" /><path
     d="m 190.32642,302.35438 2,2 7,-7 h 1 l 10,10 m -19,-4 2,-1 4,-3 m 7,2 5,4 2,1 -1,1"
     id="path288"
     inkscape:connector-curvature="0"
     style="fill:none;stroke:#000000" /><path
     d="m 251.03808,291.35438 3,1 v 18 l -1,2 -1,-2 -2,-1 m 3,-17 v 17 l -1,1 m -9,-13 2,2 5,-1 6,-1 5,-1 2,1 m -19,1 h 6 m 6,-1 h 7 m -16,7 -2,3 -1,1 h -1 v -1 l 2,-1 2,-2 m 12,0 3,2 1,1 v 1 h -1 l -1,-2 -2,-2"
     id="path290"
     inkscape:connector-curvature="0"
     style="fill:none;stroke:#000000" /><path
     d="m 40.142136,350.13655 2,2 5,-1 6,-1 5,-1 2,2 m -19,0 h 6 m 6,-1 h 6 m 1,1 -2,2 -4,3 -2,1 m 7,-7 -2,3 -2,2 -3,2 m -3,-1 3,2 2,2 v 1 h -1 l -1,-2 -3,-3"
     id="path292"
     inkscape:connector-curvature="0"
     style="fill:none;stroke:#000000" /><path
     d="m 99.853798,342.6891 2.999992,1 2,1 1,1 v 1 h -1 l -2,-2 -2.999992,-2 m -3.000004,7 3.000004,1 1.999992,1 1,1 v 1 h -1 l -1.999992,-2 -3.000004,-2 m 1,9 4.999996,2 2,1 1,1 v 1 h -1 l -2,-2 -2.999992,-2 -2.000004,-1"
     id="path294"
     inkscape:connector-curvature="0"
     style="fill:none;stroke:#000000" /><path
     d="m 149.22312,345.6891 2,2 -7,12 m 6,-13 -6,13 m -5,0 2,2 15,-3 m -16,2 16,-2 m -3,-3 2,2 2,3 h 1 v -1 l -2,-2 -3,-2"
     id="path296"
     inkscape:connector-curvature="0"
     style="fill:none;stroke:#000000" /><path
     d="m 205.93478,344.6891 2,2 -3,6 -3,4 -3,3 -3,2 -2,1 m 13,-17 -1,3 -2,4 -3,4 -3,3 -4,3 m 4,-12 4,2 3,2 2,2 v 1 h -1 l -1,-2 -2,-2 -3,-2"
     id="path298"
     inkscape:connector-curvature="0"
     style="fill:none;stroke:#000000" /><path
     d="m 246.64644,345.6891 2,2 9,-2 1,1 m -11,0 h 11 m -7,1 v 11 l 1,2 2,1 h 7 m -9,-14 v 2 l -1,6 m 5,6 4,-1 1,1 m -19,-8 2,2 5,-1 6,-1 5,-1 2,1 m -19,1 h 6 m 6,-1 h 7"
     id="path300"
     inkscape:connector-curvature="0"
     style="fill:none;stroke:#000000" /><path
     d="m 46.690646,447.5414 3,1 2,20 m -3,-20 2,21 1,-1 m -12,-15 2,2 5,-1 6,-1 5,-1 2,2 m -19,0 h 6 m 6,-1 h 6 m 1,1 -3,3 -3,2 -2,1 m 7,-7 -1,2 -3,3 -3,2"
     id="path302"
     inkscape:connector-curvature="0"
     style="fill:none;stroke:#000000" /><path
     d="m 138.85723,450.07324 2,2 10,-2 2,2 m -13,-1 h 12 m 1,1 -1,3 -1,7 m 1,-11 -1,5 v 6 m -13,0 2,2 16,-2 2,1 m -19,0 h 19"
     id="path306"
     inkscape:connector-curvature="0"
     style="fill:none;stroke:#000000" /><path
     d="m 245.66326,448.6258 2,2 12,-2 2,2 m -15,-1 h 14 m -15,5 2,2 12,-2 m -13,1 h 13 m -14,5 2,2 12,-2 m -13,1 h 13 m 2,-11 -1,3 v 10 m 0,-14 -1,5 v 9"
     id="path310"
     inkscape:connector-curvature="0"
     style="fill:none;stroke:#000000" /><path
     d="m 44.47338,397.87335 2,2 9,-2 1,1 m -11,0 h 11 m -14,6 2,2 11,-2 2,2 m -14,-1 h 13 m 1,1 -2,3 -3,3 -3,2 -2,1 -3,1 m 12,-11 -1,2 -2,3 -2,2 -3,2 -4,2"
     id="path312"
     inkscape:connector-curvature="0"
     style="fill:none;stroke:#000000" /><path
     d="m 96.185038,399.4259 2,1 v 5 l -1,4 m 0,-9 v 9 m 6.999992,-13 3,1 v 10 l -1,4 -2,3 -2.99999,3 m 4.99999,-20 v 10 l -1,4 -1,2 -2.99999,4"
     id="path314"
     inkscape:connector-curvature="0"
     style="fill:none;stroke:#000000" /><path
     d="m 143.55436,400.4259 2,1 v 3 l -1,4 -2,3 -3,3 m 5,-13 v 3 l -1,4 -1,2 -3,4 m 9,-15 2,1 v 3 l -1,6 m 0,-9 v 12 l 1,2 h 2 l 2,-1 2,-2 3,-4 m -10,5 1,1 h 3 l 2,-1"
     id="path316"
     inkscape:connector-curvature="0"
     style="fill:none;stroke:#000000" /><path
     d="m 195.00126,398.18082 3,1 v 3 l -1,6 m 0,-9 v 12 l 1,2 h 3 l 3,-1 3,-2 4,-3 3,-3 m -17,7 1,1 h 3 l 3,-1 4,-2 3,-2"
     id="path318"
     inkscape:connector-curvature="0"
     style="fill:none;stroke:#000000" /><path
     d="m 246.22276,396.69066 2,2 12,-2 2,2 m -15,-1 h 14 m -14,0 v 15 m 1,-14 v 12 l -1,2 m 15,-14 -1,3 -1,7 m 1,-11 -1,5 v 6 m -12,2 12,-2 1,1 m -13,0 h 13"
     id="path320"
     inkscape:connector-curvature="0"
     style="fill:none;stroke:#000000" /><path
     d="m 41.680345,493.99048 1,2 v 5 l 1,1 m 0,-6 v 6 m 0,-6 h 13 m -15,-2 1,1 4,1 m 6,0 3,-1 2,2 m 0,0 -3,6 -2,3 -3,3 -3,2 -2,1 m 12,-16 -1,3 -2,4 -3,4 -3,3 -3,2"
     id="path322"
     inkscape:connector-curvature="0"
     style="fill:none;stroke:#000000" /><path
     d="m 245.83111,490.05287 2,2 h 13 m -14,-1 4,1 m 6,0 3,-1 2,2 m -14,4 2,2 8,-1 m -9,0 h 9 m 4,-5 -3,6 -2,3 -3,3 -3,2 -2,1 m 12,-16 -1,3 -2,4 -3,4 -3,3 -3,2"
     id="path330"
     inkscape:connector-curvature="0"
     style="fill:none;stroke:#000000" /><path
     d="m 41.716251,541.71119 2,1 1,1 v 1 h -1 l -1,-2 -1,-1 m -1,15 2,2 4,-2 4,-3 4,-4 4,-5 m -17,13 5,-2 4,-3 8,-8"
     id="path332"
     inkscape:connector-curvature="0"
     style="fill:none;stroke:#000000" /></svg>