<?xml version='1.0' encoding='utf-8'?>
<svg xmlns='http://www.w3.org/2000/svg' version='1.1' width='30.0' height='30.0'>
<g><polyline fill="none" stroke="#66cc99" stroke-width="2.0" points="11.25,0.0 16.875,1.4285714285714284 16.875,4.285714285714286 15.0,7.142857142857142" opacity="0.8" /><polyline fill="none" stroke="#66cc99" stroke-width="2.0" points="11.25,0.0 15.0,1.4285714285714284 15.0,7.142857142857142" opacity="0.8" /><polyline fill="none" stroke="#66cc99" stroke-width="2.0" points="0.0,4.285714285714286 1.875,7.142857142857142 1.875,14.285714285714285 3.75,15.714285714285715" opacity="0.8" /><polyline fill="none" stroke="#66cc99" stroke-width="2.0" points="3.75,7.142857142857142 3.75,15.714285714285715" opacity="0.8" /><polyline fill="none" stroke="#66cc99" stroke-width="2.0" points="3.75,7.142857142857142 28.125,7.142857142857142" opacity="0.8" /><polyline fill="none" stroke="#66cc99" stroke-width="2.0" points="0.0,4.285714285714286 1.875,5.7142857142857135 9.375,7.142857142857142" opacity="0.8" /><polyline fill="none" stroke="#66cc99" stroke-width="2.0" points="20.625,7.142857142857142 26.25,5.7142857142857135 30.0,8.571428571428571" opacity="0.8" /><polyline fill="none" stroke="#66cc99" stroke-width="2.0" points="30.0,8.571428571428571 24.375,17.142857142857142 20.625,21.42857142857143 15.0,25.71428571428571 9.375,28.57142857142857 5.625,30.0" opacity="0.8" /><polyline fill="none" stroke="#66cc99" stroke-width="2.0" points="28.125,7.142857142857142 26.25,11.428571428571427 22.5,17.142857142857142 16.875,22.857142857142854 11.25,27.142857142857142 5.625,30.0" opacity="0.8" /></g>
</svg>