<?xml version='1.0' encoding='utf-8'?>
<svg xmlns='http://www.w3.org/2000/svg' version='1.1' width='30.0' height='30.0'>
<g><polyline fill="none" stroke="#66cc99" stroke-width="2.0" points="14.117647058823529,0.0 17.647058823529413,2.8571428571428568 15.882352941176471,7.142857142857142 12.352941176470587,14.285714285714285 8.823529411764707,20.0 5.294117647058824,24.285714285714285 0.0,30.0" opacity="0.8" /><polyline fill="none" stroke="#66cc99" stroke-width="2.0" points="15.882352941176471,1.4285714285714284 14.117647058823529,5.7142857142857135 10.588235294117649,14.285714285714285 7.0588235294117645,21.42857142857143 0.0,30.0" opacity="0.8" /><polyline fill="none" stroke="#66cc99" stroke-width="2.0" points="0.0,8.571428571428571 3.5294117647058822,11.428571428571427 10.588235294117649,10.0 19.411764705882355,8.571428571428571 26.470588235294116,7.142857142857142 30.0,10.0" opacity="0.8" /><polyline fill="none" stroke="#66cc99" stroke-width="2.0" points="1.7647058823529411,10.0 10.588235294117649,10.0" opacity="0.8" /><polyline fill="none" stroke="#66cc99" stroke-width="2.0" points="19.411764705882355,8.571428571428571 28.235294117647058,8.571428571428571" opacity="0.8" /><polyline fill="none" stroke="#66cc99" stroke-width="2.0" points="30.0,10.0 28.235294117647058,18.571428571428573 26.470588235294116,24.285714285714285 24.705882352941174,27.142857142857142 21.176470588235297,30.0 19.411764705882355,28.57142857142857 15.882352941176471,27.142857142857142" opacity="0.8" /><polyline fill="none" stroke="#66cc99" stroke-width="2.0" points="28.235294117647058,8.571428571428571 26.470588235294116,18.571428571428573 24.705882352941174,24.285714285714285 22.941176470588232,27.142857142857142 19.411764705882355,28.57142857142857" opacity="0.8" /></g>
</svg>