<?xml version='1.0' encoding='utf-8'?>
<svg xmlns='http://www.w3.org/2000/svg' version='1.1' width='30.0' height='30.0'>
<g><polyline fill="none" stroke="#66cc99" stroke-width="2.0" points="12.0,0.0 16.0,2.7272727272727275 12.0,8.181818181818182 8.0,12.272727272727273 4.0,15.0 0.0,17.727272727272727" opacity="0.8" /><polyline fill="none" stroke="#66cc99" stroke-width="2.0" points="14.0,1.3636363636363638 12.0,5.454545454545455 8.0,10.90909090909091 4.0,15.0" opacity="0.8" /><polyline fill="none" stroke="#66cc99" stroke-width="2.0" points="14.0,5.454545454545455 18.0,6.818181818181818 28.0,6.818181818181818" opacity="0.8" /><polyline fill="none" stroke="#66cc99" stroke-width="2.0" points="22.0,6.818181818181818 26.0,5.454545454545455 30.0,8.181818181818182" opacity="0.8" /><polyline fill="none" stroke="#66cc99" stroke-width="2.0" points="30.0,8.181818181818182 24.0,16.363636363636363 18.0,21.81818181818182 12.0,25.90909090909091 6.0,28.636363636363637 2.0,30.0" opacity="0.8" /><polyline fill="none" stroke="#66cc99" stroke-width="2.0" points="28.0,6.818181818181818 26.0,10.90909090909091 22.0,16.363636363636363 16.0,21.81818181818182 10.0,25.90909090909091 2.0,30.0" opacity="0.8" /><polyline fill="none" stroke="#66cc99" stroke-width="2.0" points="8.0,13.636363636363637 14.0,15.0 18.0,16.363636363636363 24.0,19.09090909090909 26.0,20.454545454545453 26.0,21.81818181818182 24.0,21.81818181818182 22.0,19.09090909090909 18.0,16.363636363636363" opacity="0.8" /></g>
</svg>