<?xml version='1.0' encoding='utf-8'?>
<svg xmlns='http://www.w3.org/2000/svg' version='1.1' width='30.0' height='30.0'>
<g><polyline fill="none" stroke="#66cc99" stroke-width="2.0" points="10.588235294117649,0.0 14.117647058823529,1.3636363636363653 15.882352941176471,2.7272727272727306 15.882352941176471,4.090909090909096 14.117647058823529,4.090909090909096 12.352941176470587,1.3636363636363653 10.588235294117649,0.0" opacity="0.8" /><polyline fill="none" stroke="#66cc99" stroke-width="2.0" points="0.0,8.181818181818192 3.5294117647058822,10.909090909090922 21.176470588235297,8.181818181818192 24.705882352941174,10.909090909090922" opacity="0.8" /><polyline fill="none" stroke="#66cc99" stroke-width="2.0" points="1.7647058823529411,9.545454545454557 22.941176470588232,9.545454545454557" opacity="0.8" /><polyline fill="none" stroke="#66cc99" stroke-width="2.0" points="24.705882352941174,10.909090909090922 17.647058823529413,16.363636363636385 12.352941176470587,19.090909090909076 8.823529411764707,20.454545454545443 0.0,23.181818181818173" opacity="0.8" /><polyline fill="none" stroke="#66cc99" stroke-width="2.0" points="22.941176470588232,9.545454545454518 19.411764705882355,13.636363636363615 15.882352941176471,16.363636363636346 10.588235294117649,19.090909090909076 0.0,23.181818181818173" opacity="0.8" /><polyline fill="none" stroke="#66cc99" stroke-width="2.0" points="14.117647058823529,17.727272727272712 15.882352941176471,19.090909090909076 15.882352941176471,30.0" opacity="0.8" /><polyline fill="none" stroke="#66cc99" stroke-width="2.0" points="14.117647058823529,17.727272727272712 14.117647058823529,28.636363636363633 15.882352941176471,30.0" opacity="0.8" /><polyline fill="none" stroke="#66cc99" stroke-width="2.0" points="24.705882352941174,20.454545454545443 28.235294117647058,21.81818181818181 30.0,23.181818181818173 30.0,24.545454545454536 28.235294117647058,24.545454545454536 26.470588235294116,21.81818181818181 24.705882352941174,20.454545454545443" opacity="0.8" /></g>
</svg>