<?xml version='1.0' encoding='utf-8'?>
<svg xmlns='http://www.w3.org/2000/svg' version='1.1' width='30.0' height='30.0'>
<g><polyline fill="none" stroke="#66cc99" stroke-width="2.0" points="11.999999999999982,0.0 16.49999999999998,1.4285714285714284 16.49999999999998,27.142857142857142 14.999999999999979,30.0 13.49999999999998,27.142857142857142 10.499999999999984,25.71428571428571" opacity="0.8" /><polyline fill="none" stroke="#66cc99" stroke-width="2.0" points="14.999999999999979,1.4285714285714284 14.999999999999979,25.71428571428571 13.49999999999998,27.142857142857142" opacity="0.8" /><polyline fill="none" stroke="#66cc99" stroke-width="2.0" points="0.0,8.571428571428571 2.9999999999999956,11.428571428571427 10.499999999999984,10.0 19.500000000000014,8.571428571428571 27.000000000000004,7.142857142857142 30.0,8.571428571428571" opacity="0.8" /><polyline fill="none" stroke="#66cc99" stroke-width="2.0" points="1.5000000000000404,10.0 10.500000000000028,10.0" opacity="0.8" /><polyline fill="none" stroke="#66cc99" stroke-width="2.0" points="19.500000000000014,8.571428571428571 30.0,8.571428571428571" opacity="0.8" /><polyline fill="none" stroke="#66cc99" stroke-width="2.0" points="6.000000000000035,18.571428571428573 3.0000000000000386,22.857142857142854 1.5000000000000404,24.285714285714285 4.263256414560595e-14,24.285714285714285 4.263256414560595e-14,22.857142857142854 3.0000000000000386,21.42857142857143 6.000000000000035,18.571428571428573" opacity="0.8" /><polyline fill="none" stroke="#66cc99" stroke-width="2.0" points="24.000000000000007,18.571428571428573 28.500000000000004,21.42857142857143 30.0,22.857142857142854 30.0,24.285714285714285 28.500000000000004,24.285714285714285 27.000000000000004,21.42857142857143 24.000000000000007,18.571428571428573" opacity="0.8" /></g>
</svg>