<?xml version='1.0' encoding='utf-8'?>
<svg xmlns='http://www.w3.org/2000/svg' version='1.1' width='30.0' height='30.0'>
<g><polyline fill="none" stroke="#66cc99" stroke-width="2.0" points="30.0,12.857142857142856 30.0,11.428571428571427 28.5,10.0 27.0,10.0 25.5,11.428571428571427 24.0,14.285714285714285 21.0,21.42857142857143 18.0,25.71428571428571 15.0,28.57142857142857 12.0,30.0 6.0,30.0 3.0,28.57142857142857 1.5,27.142857142857142 0.0,24.285714285714285 0.0,21.42857142857143 1.5,18.571428571428573 3.0,17.142857142857142 13.5,11.428571428571427 15.0,10.0 16.5,7.142857142857142 16.5,4.285714285714286 15.0,1.4285714285714284 12.0,0.0 9.0,1.4285714285714284 7.5,4.285714285714286 7.5,7.142857142857142 9.0,11.428571428571427 12.0,15.714285714285715 19.5,25.71428571428571 22.5,28.57142857142857 25.5,30.0 28.5,30.0 30.0,28.57142857142857 30.0,27.142857142857142" opacity="0.8" /></g>
</svg>