<?xml version='1.0' encoding='utf-8'?>
<svg xmlns='http://www.w3.org/2000/svg' version='1.1' width='30.0' height='30.0'>
<g><polyline fill="none" stroke="#66cc99" stroke-width="2.0" points="15.0,15.0 17.727272727272727,24.0 19.09090909090909,27.0 21.81818181818182,30.0 24.545454545454547,30.0 27.272727272727273,27.0 28.636363636363637,24.0 30.0,18.0 30.0,12.0 28.636363636363637,6.0 27.272727272727273,3.0 24.545454545454547,0.0 21.81818181818182,0.0 19.09090909090909,3.0 17.727272727272727,6.0 12.272727272727273,24.0 10.90909090909091,27.0 8.181818181818182,30.0 5.454545454545455,30.0 2.7272727272727275,27.0 1.3636363636363638,24.0 0.0,18.0 0.0,12.0 1.3636363636363638,6.0 2.7272727272727275,3.0 5.454545454545455,0.0 8.181818181818182,0.0 10.90909090909091,3.0 12.272727272727273,6.0 15.0,15.0" opacity="0.8" /></g>
</svg>